# xmcd CD database file
#
# Track frame offsets:
#	150
#	17063
#	35681
#	59154
#	80663
#	102249
#	117725
#	147169
#	165547
#	182754
#	198207
#	213879
#
# Disc length: 3204 seconds
#
# Revision: 0
# Processed by: cddbd v1.5.2PL0 Copyright (c) Steve Scherf et al.
# Submitted via: CDex 1.70beta2
#
DISCID=ad0c820c
DTITLE=Straszni Panowie Trzej - Piosenki Starszych Panow
DYEAR=1900
DGENRE=Jazz
TTITLE0=Dzien Dobry Mr Blues
TTITLE1=Herbatka
TTITLE2=Zmierzch
TTITLE3=We dwoje
TTITLE4=Taka gmina
TTITLE5=Piosenka jest dobra na wszystko
TTITLE6=Pejzaz bez Ciebie
TTITLE7=Wesoly deszczyk
TTITLE8=Jesienna dziewczyna
TTITLE9=No i jak tu nie jechac
TTITLE10=Po kompocie
TTITLE11=Juz czas na sen
EXTD=
EXTT0=
EXTT1=
EXTT2=
EXTT3=
EXTT4=
EXTT5=
EXTT6=
EXTT7=
EXTT8=
EXTT9=
EXTT10=
EXTT11=
PLAYORDER=
